<svg width="16" height="16" viewBox="0 0 16 16" fill="none" xmlns="http://www.w3.org/2000/svg">
<path fill-rule="evenodd" clip-rule="evenodd" d="M6.66634 2H9.33301C10.0694 2 10.6663 2.59695 10.6663 3.33333V4H13.333C14.0694 4 14.6663 4.59695 14.6663 5.33333V12.6667C14.6663 13.403 14.0694 14 13.333 14H2.66634C1.92996 14 1.33301 13.403 1.33301 12.6667V5.33333C1.33301 4.59695 1.92996 4 2.66634 4H5.33301V3.33333C5.33301 2.59695 5.92996 2 6.66634 2ZM2.66634 5.33333H5.33301H10.6663H13.333V8.66667H8.66634H7.33301H2.66634V5.33333ZM2.66634 12.6667V10H7.33301V10.6667H8.66634V10H13.333V12.6667H2.66634ZM9.33301 3.33333V4H6.66634V3.33333H9.33301Z" fill="#45484C"/>
</svg>
