<svg width="20" height="20" viewBox="0 0 20 20" fill="none" xmlns="http://www.w3.org/2000/svg">
<path fill-rule="evenodd" clip-rule="evenodd" d="M15.8332 8.33338C15.8332 4.95073 13.9678 2.60295 11.5543 1.89813C11.4669 1.67201 11.3288 1.46179 11.1411 1.2854C10.4996 0.682699 9.50006 0.682699 8.8586 1.2854C8.67127 1.4614 8.53334 1.67109 8.44592 1.89665C6.02929 2.5984 4.1665 4.94104 4.1665 8.33338C4.1665 10.5283 3.72399 11.7582 2.9048 12.6495C2.76784 12.7985 2.39676 13.1399 2.14539 13.3711C2.02646 13.4805 1.93433 13.5653 1.90647 13.5933L1.6665 13.8367V16.6784H6.73982C6.91137 17.5635 7.39158 18.1556 8.26 18.6855C9.32829 19.3375 10.6714 19.3375 11.7397 18.6855C12.5061 18.2179 13.02 17.4991 13.2284 16.6784H18.3332V13.8367L18.0932 13.5933C18.0679 13.5677 17.9796 13.4862 17.864 13.3796L17.864 13.3796C17.6134 13.1484 17.235 12.7994 17.096 12.6475C16.2762 11.752 15.8332 10.5206 15.8332 8.33338ZM11.4471 16.6784H8.48202C8.59976 16.8975 8.80043 17.0628 9.12818 17.2629C9.66339 17.5895 10.3363 17.5895 10.8715 17.2629C11.1193 17.1116 11.313 16.9115 11.4471 16.6784ZM15.8666 13.7729C16.042 13.9644 16.4178 14.3146 16.6665 14.5433V15.0118H3.33317V14.5437C3.5799 14.3176 3.95687 13.9678 4.13191 13.7773C5.24502 12.5662 5.83317 10.9315 5.83317 8.33337C5.83317 5.18329 7.77714 3.34369 9.99984 3.34369C12.2163 3.34369 14.1665 5.19278 14.1665 8.33337C14.1665 10.9232 14.7548 12.5584 15.8666 13.7729Z" fill="#575A5F"/>
</svg>
