<svg width="9" height="11" viewBox="0 0 9 11" fill="none" xmlns="http://www.w3.org/2000/svg">
<path fill-rule="evenodd" clip-rule="evenodd" d="M8.6141 4.60577C8.77589 3.52256 7.95115 2.94025 6.82342 2.55179L7.18924 1.08444L6.2958 0.861843L5.93965 2.29052C5.7051 2.23201 5.46393 2.17681 5.22429 2.12211L5.58299 0.684021L4.69032 0.461426L4.32424 1.92826C4.12989 1.884 3.93909 1.84024 3.75389 1.7942L3.75491 1.78962L2.52313 1.48206L2.28553 2.43604C2.28553 2.43604 2.94822 2.58791 2.93423 2.59732C3.29598 2.68763 3.36161 2.92702 3.35042 3.1168L2.93372 4.78842C2.95865 4.79478 2.99096 4.80394 3.02658 4.81819L2.93245 4.79478L2.34811 7.13648C2.30384 7.24638 2.19165 7.41123 1.93879 7.34865C1.94769 7.36162 1.28957 7.1866 1.28957 7.1866L0.846161 8.20927L2.00874 8.49902C2.13999 8.53191 2.26965 8.56574 2.39788 8.59919L2.39798 8.59922C2.48098 8.62087 2.56339 8.64237 2.64524 8.66336L2.2756 10.1478L3.16777 10.3703L3.53409 8.90198C3.77755 8.96813 4.01414 9.02918 4.24564 9.08667L3.88083 10.5482L4.77401 10.7708L5.14365 9.28942C6.66671 9.57765 7.81225 9.4614 8.29382 8.0841C8.68228 6.97494 8.27474 6.33514 7.47339 5.91768C8.05697 5.7826 8.49657 5.39872 8.61384 4.60577H8.6141ZM6.57309 7.46744C6.31953 8.48544 4.72575 8.06423 3.99718 7.87167L3.99713 7.87166C3.9319 7.85442 3.87362 7.83902 3.82385 7.82664L4.31432 5.86043C4.37517 5.87561 4.44951 5.8923 4.53373 5.91119C5.28747 6.08033 6.83215 6.42696 6.57335 7.46744H6.57309ZM4.68523 4.99882C5.29315 5.161 6.61827 5.51452 6.84911 4.58975C7.08511 3.64367 5.79657 3.35852 5.16726 3.21926C5.09652 3.20361 5.0341 3.18979 4.98312 3.17709L4.53844 4.9604C4.58052 4.97088 4.6299 4.98406 4.68523 4.99882Z" fill="#F7931A"/>
</svg>
