<svg width="24" height="24" viewBox="0 0 48 48" fill="none" xmlns="http://www.w3.org/2000/svg">
<path opacity="0.2" d="M47.28 29.8062C44.0745 42.6634 31.0515 50.4874 18.1927 47.2819C5.33999 44.0765 -2.48476 31.0534 0.721486 18.1969C3.92549 5.3382 16.9477 -2.4873 29.8027 0.718197C42.6607 3.9237 50.4847 16.9482 47.2792 29.8062H47.28Z" fill="#F7931A"/>
<path fill-rule="evenodd" clip-rule="evenodd" d="M31.2283 21.2115C31.5519 19.0451 29.9024 17.8805 27.6469 17.1036L28.3785 14.1689L26.5917 13.7237L25.8794 16.581C25.4103 16.464 24.9279 16.3536 24.4486 16.2442L25.166 13.368L23.3807 12.9229L22.6485 15.8565C22.2598 15.768 21.8782 15.6805 21.5078 15.5884L21.5099 15.5792L19.0463 14.9641L18.5711 16.8721C18.5711 16.8721 19.8965 17.1758 19.8685 17.1946C20.592 17.3753 20.7233 17.854 20.7009 18.2336L19.8675 21.5768C19.9174 21.5896 19.982 21.6079 20.0532 21.6364L19.865 21.5896L18.6963 26.273C18.6077 26.4928 18.3834 26.8225 17.8776 26.6973C17.8954 26.7232 16.5792 26.3732 16.5792 26.3732L15.6924 28.4185L18.0175 28.998C18.2799 29.0638 18.539 29.1314 18.7954 29.1983L18.7958 29.1984C18.9619 29.2417 19.1268 29.2847 19.2905 29.3267L18.5513 32.2955L20.3356 32.7407L21.0682 29.804C21.5552 29.9363 22.0283 30.0584 22.4913 30.1733L21.7617 33.0963L23.5481 33.5415L24.2874 30.5788C27.3335 31.1553 29.6246 30.9228 30.5877 28.1682C31.3646 25.9499 30.5495 24.6703 28.9468 23.8354C30.114 23.5652 30.9932 22.7974 31.2278 21.2115H31.2283ZM27.1462 26.9351C26.6391 28.9711 23.4516 28.1286 21.9944 27.7435L21.9943 27.7435C21.8639 27.709 21.7473 27.6782 21.6478 27.6535L22.6287 23.721C22.7504 23.7514 22.8991 23.7848 23.0675 23.8226C24.575 24.1609 27.6644 24.8541 27.1468 26.9351H27.1462ZM23.3705 21.9976C24.5864 22.3219 27.2366 23.029 27.6983 21.1794C28.1703 19.2873 25.5932 18.717 24.3346 18.4385C24.1931 18.4071 24.0683 18.3795 23.9663 18.3541L23.077 21.9207C23.1611 21.9417 23.2599 21.968 23.3705 21.9976Z" fill="#F7931A"/>
</svg>
