<svg width="24" height="24" viewBox="0 0 24 24" fill="none" xmlns="http://www.w3.org/2000/svg">
<path d="M12 22.5C17.799 22.5 22.5 17.799 22.5 12C22.5 6.20101 17.799 1.5 12 1.5C6.20101 1.5 1.5 6.20101 1.5 12C1.5 17.799 6.20101 22.5 12 22.5Z" fill="#FFC72D"/>
<path d="M12 22.5C17.799 22.5 22.5 17.799 22.5 12C22.5 6.20101 17.799 1.5 12 1.5V22.5Z" fill="#F59D00"/>
<path d="M11.9999 21.1429C17.0495 21.1429 21.1429 17.0495 21.1429 11.9999C21.1429 6.95039 17.0495 2.85693 11.9999 2.85693C6.95039 2.85693 2.85693 6.95039 2.85693 11.9999C2.85693 17.0495 6.95039 21.1429 11.9999 21.1429Z" fill="#79A2F9"/>
<path d="M12 21.1429C17.0495 21.1429 21.143 17.0495 21.143 11.9999C21.143 6.95039 17.0495 2.85693 12 2.85693V21.1429Z" fill="#5D8FFA"/>
<path d="M15.703 12.1905C16.0955 11.8912 16.397 11.4601 16.5339 10.9394C16.8562 9.71377 16.1485 8.45176 14.9564 8.12618L14.7275 8.06367L14.9186 7.33708C15.0052 7.00789 14.8191 6.67103 14.503 6.58469C14.187 6.49835 13.8606 6.69527 13.774 7.02446L13.5829 7.75105L12.3204 7.40623L12.5114 6.67964C12.598 6.35045 12.412 6.01359 12.0959 5.92729C11.7798 5.84095 11.4534 6.03787 11.3668 6.36706L11.1757 7.09365L9.55135 6.64998C9.23528 6.56365 8.90888 6.76056 8.8223 7.08975C8.73571 7.41895 8.92176 7.75581 9.23787 7.8421L10.1686 8.09632L8.69322 13.7067L7.76249 13.4525C7.44643 13.3661 7.12002 13.563 7.03344 13.8922C6.94686 14.2214 7.1329 14.5583 7.44901 14.6446L9.07339 15.0883L8.91109 15.7054C8.82451 16.0346 9.01056 16.3715 9.32666 16.4578C9.64273 16.5441 9.96913 16.3472 10.0557 16.018L10.218 15.4009L11.4806 15.7457L11.3183 16.3629C11.2317 16.692 11.4177 17.0289 11.7338 17.1152C12.0499 17.2015 12.3763 17.0046 12.4629 16.6754L12.6252 16.0583L13.3455 16.255C14.6173 16.6024 15.9317 15.8215 16.2754 14.5144C16.5001 13.6596 16.255 12.7884 15.703 12.1905ZM14.6429 9.31826C15.2039 9.47149 15.5388 10.0585 15.3893 10.6267C15.2398 11.195 14.6619 11.5327 14.1008 11.3795L12.1065 10.8348L10.7712 10.4701L11.3132 8.40886L14.6429 9.31826ZM13.6589 15.0628L9.83784 14.0192L10.4577 11.6622L11.793 12.0269L13.7874 12.5716L14.2787 12.7058C14.9194 12.8808 15.3017 13.5518 15.1307 14.2017C14.9599 14.8515 14.2996 15.2378 13.6589 15.0628Z" fill="#F59D00"/>
<path fill-rule="evenodd" clip-rule="evenodd" d="M12.0002 5.90937C11.7166 5.88199 11.4451 6.07099 11.3673 6.36681L11.1762 7.09341L9.55184 6.64974C9.23577 6.5634 8.90937 6.76032 8.82278 7.08951C8.7362 7.4187 8.92225 7.75556 9.23835 7.84186L10.1691 8.09607L8.69371 13.7064L7.76298 13.4522C7.44691 13.3659 7.12051 13.5628 7.03393 13.892C6.94734 14.2212 7.13339 14.558 7.4495 14.6444L9.07388 15.088L8.91158 15.7052C8.825 16.0344 9.01105 16.3712 9.32715 16.4576C9.64322 16.5439 9.96962 16.347 10.0562 16.0178L10.2185 15.4007L11.481 15.7455L11.3187 16.3626C11.2322 16.6918 11.4182 17.0287 11.7343 17.115C11.824 17.1395 11.9145 17.1411 12.0002 17.1235V14.6094L9.83833 14.019L10.4582 11.662L11.7935 12.0267L12.0002 12.0831V10.8054L10.7716 10.4699L11.3137 8.40861L12.0002 8.59611V5.90937Z" fill="#FFC72D"/>
</svg>
