<svg width="30" height="30" viewBox="0 0 30 30" fill="none" xmlns="http://www.w3.org/2000/svg">
<path opacity="0.2" d="M26.9832 15.5668C26.6709 22.1848 21.0518 27.2966 14.4331 26.9843C7.81724 26.6715 2.70511 21.0526 3.01794 14.4348C3.32943 7.8162 8.94793 2.70378 15.5649 3.01638C22.1833 3.32868 27.2952 8.94843 26.9829 15.5668L26.9832 15.5668Z" fill="#F7931A"/>
<path fill-rule="evenodd" clip-rule="evenodd" d="M18.2711 12.9249C18.2175 11.831 17.2947 11.4216 16.1127 11.2615L16.184 9.75095L15.2643 9.70769L15.1949 11.1785C14.9534 11.167 14.7061 11.1601 14.4604 11.1534L14.5305 9.67294L13.6115 9.62953L13.5398 11.1397C13.3406 11.1343 13.1449 11.1288 12.9543 11.1199L12.9544 11.1152L11.6862 11.0549L11.6401 12.037C11.6401 12.037 12.3197 12.0561 12.3078 12.068C12.6802 12.0857 12.7915 12.3076 12.8177 12.4959L12.7365 14.2168C12.7622 14.2181 12.7957 14.2208 12.8334 14.2278L12.7365 14.2233L12.6222 16.6341C12.6004 16.7505 12.5226 16.9342 12.2624 16.9223C12.2737 16.9333 11.594 16.8906 11.594 16.8906L11.3595 17.9803L12.5564 18.0367C12.6915 18.0432 12.8253 18.051 12.9576 18.0587L12.9577 18.0587C13.0433 18.0637 13.1283 18.0686 13.2127 18.0732L13.141 19.6012L14.0595 19.6447L14.1311 18.133C14.3828 18.1502 14.6267 18.1637 14.865 18.1748L14.7936 19.6794L15.7131 19.7227L15.7854 18.1977C17.3354 18.182 18.4359 17.8436 18.6384 16.3986C18.802 15.2349 18.2771 14.6873 17.4095 14.4349C17.9553 14.1881 18.3112 13.7255 18.2708 12.925L18.2711 12.9249ZM16.8302 16.131C16.781 17.1789 15.1356 17.0781 14.3834 17.032L14.3833 17.032C14.316 17.0279 14.2558 17.0242 14.2046 17.0218L14.3004 14.9976C14.363 15.0006 14.4392 15.0024 14.5255 15.0044C15.2978 15.0226 16.8804 15.0599 16.8304 16.1309L16.8302 16.131ZM14.4953 14.08C15.1232 14.12 16.4919 14.2071 16.5371 13.255C16.5832 12.281 15.2638 12.2538 14.6194 12.2405C14.547 12.239 14.4831 12.2377 14.4306 12.2352L14.3439 14.0711C14.3872 14.0731 14.4382 14.0764 14.4953 14.08Z" fill="#F7931A"/>
</svg>
