<svg width="24" height="24" viewBox="0 0 9 14" fill="none" xmlns="http://www.w3.org/2000/svg">
<path fill-rule="evenodd" clip-rule="evenodd" d="M5.66666 1.70963C7.27582 1.92519 8.33333 2.94785 8.33333 4.66671C8.33333 5.53782 8.06172 6.23011 7.58434 6.72916C8.46677 7.20152 9 8.087 9 9.33337C9 11.2682 7.71498 12.3334 5.83333 12.3334H5.66666V13.6667H4.33333V12.3334H2.99999V13.6667H1.66666V12.3334H0.333328V11H1.66666V3.00004H0.333328V1.66671H1.66666V0.333374H2.99999V1.66671H4.33333V0.333374H5.66666V1.70963ZM5 3.00004H2.99999V6.33337H5C6.30411 6.33337 7 5.79261 7 4.66671C7 3.5408 6.30411 3.00004 5 3.00004ZM2.99999 7.66671V11H5.83333C7.0281 11 7.66666 10.4707 7.66666 9.33337C7.66666 8.196 7.0281 7.66671 5.83333 7.66671H2.99999Z" fill="#6666FF"/>
</svg>
