<svg width="24" height="24" viewBox="0 0 24 24" fill="none" xmlns="http://www.w3.org/2000/svg">
<rect width="24" height="24" rx="12" fill="#CED3D7"/>
<path d="M4 11.85C4 10.7667 4.18082 9.7 4.54245 8.65C4.91981 7.58333 5.46226 6.63333 6.16981 5.8C6.87736 4.96667 7.74214 4.29167 8.76415 3.775C9.78616 3.25833 10.9497 3 12.2547 3C13.7956 3 15.1242 3.35833 16.2406 4.075C17.3726 4.79167 18.2138 5.725 18.7642 6.875L16.2642 8.7C16.044 8.2 15.7767 7.78333 15.4623 7.45C15.1478 7.1 14.8097 6.825 14.4481 6.625C14.0865 6.425 13.7091 6.28333 13.316 6.2C12.923 6.1 12.5377 6.05 12.1604 6.05C11.3428 6.05 10.6274 6.225 10.0142 6.575C9.41667 6.925 8.91352 7.38333 8.50472 7.95C8.11164 8.5 7.81289 9.13333 7.60849 9.85C7.40409 10.55 7.30189 11.25 7.30189 11.95C7.30189 12.7333 7.41981 13.4917 7.65566 14.225C7.89151 14.9417 8.2217 15.575 8.64623 16.125C9.08648 16.675 9.60535 17.1167 10.2028 17.45C10.816 17.7833 11.4843 17.95 12.2075 17.95C12.5849 17.95 12.978 17.9 13.3868 17.8C13.7956 17.7 14.1808 17.5417 14.5425 17.325C14.9198 17.1083 15.2657 16.8333 15.5802 16.5C15.8947 16.15 16.1462 15.7333 16.3349 15.25L19 16.875C18.7327 17.5417 18.3475 18.1333 17.8443 18.65C17.3569 19.15 16.7987 19.575 16.1698 19.925C15.5566 20.275 14.8962 20.5417 14.1887 20.725C13.4811 20.9083 12.7893 21 12.1132 21C10.9182 21 9.82547 20.7333 8.83491 20.2C7.84434 19.6667 6.98742 18.975 6.26415 18.125C5.5566 17.2583 4.99843 16.2833 4.58962 15.2C4.19654 14.1 4 12.9833 4 11.85Z" fill="#F7F8F8"/>
</svg>
