<svg width="16" height="16" viewBox="0 0 16 16" fill="none" xmlns="http://www.w3.org/2000/svg">
<path d="M10.1951 5.52856L6.66648 9.05715L5.13788 7.52856L4.19507 8.47136L6.66648 10.9428L11.1379 6.47136L10.1951 5.52856Z" fill="#27AE60"/>
<path fill-rule="evenodd" clip-rule="evenodd" d="M7.99984 15.3333C3.94975 15.3333 0.666504 12.05 0.666504 7.99996C0.666504 3.94987 3.94975 0.666626 7.99984 0.666626C12.0499 0.666626 15.3332 3.94987 15.3332 7.99996C15.3332 12.05 12.0499 15.3333 7.99984 15.3333ZM7.99984 14C11.3135 14 13.9998 11.3137 13.9998 7.99996C13.9998 4.68625 11.3135 1.99996 7.99984 1.99996C4.68613 1.99996 1.99984 4.68625 1.99984 7.99996C1.99984 11.3137 4.68613 14 7.99984 14Z" fill="#27AE60"/>
</svg>
