<svg width="80" height="80" viewBox="0 0 80 80" fill="none" xmlns="http://www.w3.org/2000/svg">
<mask id="mask0" mask-type="alpha" maskUnits="userSpaceOnUse" x="0" y="0" width="80" height="80">
<path fill-rule="evenodd" clip-rule="evenodd" d="M40 -3.49691e-06C17.9086 -5.4282e-06 5.4282e-06 17.9086 3.49691e-06 40C1.56562e-06 62.0914 17.9086 80 40 80C62.0914 80 80 62.0914 80 40C80 17.9086 62.0914 -1.56562e-06 40 -3.49691e-06ZM40 5.71428C21.0645 5.71427 5.71428 21.0645 5.71428 40C5.71428 58.9355 21.0645 74.2857 40 74.2857C58.9355 74.2857 74.2857 58.9355 74.2857 40C74.2857 21.0645 58.9355 5.71428 40 5.71428Z" fill="#C4C4C4"/>
</mask>
<g mask="url(#mask0)">
<path d="M80 80L40 80L40 40L3.49691e-06 40L6.99382e-06 -6.99382e-06L80 0L80 80Z" fill="#1D66FF"/>
</g>
</svg>
