<svg width="16" height="16" viewBox="0 0 16 16" fill="none" xmlns="http://www.w3.org/2000/svg">
<path fill-rule="evenodd" clip-rule="evenodd" d="M7.99984 15.3334C3.94975 15.3334 0.666504 12.0502 0.666504 8.00008C0.666504 3.94999 3.94975 0.666748 7.99984 0.666748C12.0499 0.666748 15.3332 3.94999 15.3332 8.00008C15.3332 12.0502 12.0499 15.3334 7.99984 15.3334ZM7.99984 14.0001C11.3135 14.0001 13.9998 11.3138 13.9998 8.00008C13.9998 4.68637 11.3135 2.00008 7.99984 2.00008C4.68613 2.00008 1.99984 4.68637 1.99984 8.00008C1.99984 11.3138 4.68613 14.0001 7.99984 14.0001ZM5.80455 11.1382L7.99981 8.94289L10.1951 11.1382L11.1379 10.1953L8.94262 8.00008L11.1379 5.80482L10.1951 4.86201L7.99981 7.05727L5.80455 4.86201L4.86174 5.80482L7.057 8.00008L4.86174 10.1953L5.80455 11.1382Z" fill="#797F84"/>
</svg>
