<svg width="16" height="16" viewBox="0 0 16 16" fill="none" xmlns="http://www.w3.org/2000/svg">
<path fill-rule="evenodd" clip-rule="evenodd" d="M6.66659 1.33398H13.3333C14.1014 1.33398 14.6666 1.89913 14.6666 2.66732V9.33398C14.6666 10.1022 14.1014 10.6673 13.3333 10.6673H10.6666V13.334C10.6666 14.1022 10.1014 14.6673 9.33325 14.6673H2.66659C1.8984 14.6673 1.33325 14.1022 1.33325 13.334V6.66732C1.33325 5.89913 1.8984 5.33398 2.66659 5.33398H5.33325V2.66732C5.33325 1.89913 5.8984 1.33398 6.66659 1.33398ZM5.33325 6.66732H2.66659V13.334H9.33325V10.6673H6.66659C5.8984 10.6673 5.33325 10.1022 5.33325 9.33398V6.66732ZM6.66658 2.66732V9.33398H13.3333V2.66732H6.66658Z" fill="#45484C"/>
</svg>
