<svg width="16" height="16" viewBox="0 0 16 16" fill="none" xmlns="http://www.w3.org/2000/svg">
<path fill-rule="evenodd" clip-rule="evenodd" d="M10.9583 1.33398C11.3948 1.33398 11.8132 1.50826 12.1188 1.81627L14.186 3.88353C14.4938 4.19132 14.6667 4.60876 14.6667 5.04404C14.6667 5.47931 14.4938 5.89676 14.186 6.20454L6.63838 13.7498C6.17272 14.287 5.51264 14.617 4.75644 14.6689H1.33337V14.0022L1.33554 11.1922C1.39233 10.4892 1.71915 9.83554 2.2177 9.39627L9.79697 1.81707C10.1043 1.50787 10.5223 1.33398 10.9583 1.33398ZM4.70936 13.3372C5.06551 13.312 5.39703 13.1462 5.66324 12.8417L10.7045 7.80046L8.20159 5.29745L3.13078 10.367C2.86067 10.6059 2.69358 10.9401 2.66671 11.2459V13.3359L4.70936 13.3372ZM9.14451 4.35475L11.6473 6.85766L13.2432 5.26173C13.301 5.204 13.3334 5.12569 13.3334 5.04404C13.3334 4.96239 13.301 4.88408 13.2432 4.82634L11.1741 2.75722C11.117 2.69968 11.0393 2.66732 10.9583 2.66732C10.8772 2.66732 10.7995 2.69968 10.7424 2.75722L9.14451 4.35475Z" fill="#45484C"/>
</svg>
