<svg width="16" height="16" viewBox="0 0 16 16" fill="none" xmlns="http://www.w3.org/2000/svg">
<path fill-rule="evenodd" clip-rule="evenodd" d="M6.00004 0.666016H10C10.7364 0.666016 11.3334 1.26297 11.3334 1.99935V2.66602H13.3334C14.0698 2.66602 14.6667 3.26297 14.6667 3.99935V5.33268C14.6667 6.06906 14.0698 6.66602 13.3334 6.66602H13.28L12.6667 13.9993C12.6667 14.7357 12.0698 15.3327 11.3334 15.3327H4.66675C3.93037 15.3327 3.33341 14.7357 3.33572 14.0547L2.71999 6.66602H2.66671C1.93033 6.66602 1.33337 6.06906 1.33337 5.33268V3.99935C1.33337 3.26297 1.93033 2.66602 2.66671 2.66602H4.66671V1.99935C4.66671 1.26297 5.26366 0.666016 6.00004 0.666016ZM2.66671 3.99935L4.66671 3.99935H11.3334L13.3334 3.99935V5.33268H2.66671V3.99935ZM4.05772 6.66602H11.9422L11.3357 13.944L11.3334 13.9993H4.66673L4.05772 6.66602ZM10 1.99935V2.66602H6.00004V1.99935H10Z" fill="#45484C"/>
</svg>
