<svg width="20" height="20" viewBox="0 0 20 20" fill="none" xmlns="http://www.w3.org/2000/svg">
<path fill-rule="evenodd" clip-rule="evenodd" d="M7.49984 0.832031H12.4998C13.4203 0.832031 14.1665 1.57822 14.1665 2.4987V3.33203H16.6665C17.587 3.33203 18.3332 4.07822 18.3332 4.9987V6.66536C18.3332 7.58584 17.587 8.33203 16.6665 8.33203H16.5997L15.8332 17.4987C15.8332 18.4192 15.087 19.1654 14.1665 19.1654H5.83317C4.91269 19.1654 4.1665 18.4192 4.16938 17.5679L3.39973 8.33203H3.33317C2.4127 8.33203 1.6665 7.58584 1.6665 6.66536V4.9987C1.6665 4.07822 2.4127 3.33203 3.33317 3.33203H5.83317V2.4987C5.83317 1.57822 6.57936 0.832031 7.49984 0.832031ZM3.33317 4.9987H5.83317H14.1665H16.6665V6.66536H3.33317V4.9987ZM5.07191 8.33203H14.9275L14.1694 17.4295L14.1665 17.4987H5.83317L5.07191 8.33203ZM12.4998 2.4987V3.33203H7.49984V2.4987H12.4998ZM6.91058 10.5879L8.08909 9.40943L9.99984 11.3202L11.9106 9.40943L13.0891 10.5879L11.1783 12.4987L13.0891 14.4094L11.9106 15.5879L9.99984 13.6772L8.08909 15.5879L6.91058 14.4094L8.82133 12.4987L6.91058 10.5879Z" fill="#686D71"/>
</svg>
