<svg width="16" height="16" viewBox="0 0 16 16" fill="none" xmlns="http://www.w3.org/2000/svg">
<path fill-rule="evenodd" clip-rule="evenodd" d="M14.6667 13.334V8.66732H13.3334V13.334H2.66671V2.66732H7.33337V1.33398H2.66671C1.93033 1.33398 1.33337 1.93094 1.33337 2.66732V13.334C1.33337 14.0704 1.93033 14.6673 2.66671 14.6673H13.3334C14.0698 14.6673 14.6667 14.0704 14.6667 13.334ZM12.7854 1.81627C12.4799 1.50826 12.0614 1.33398 11.6249 1.33398C11.1889 1.33398 10.771 1.50787 10.4636 1.81707L4.88437 7.39626C4.38582 7.83554 4.059 8.48921 4.00221 9.19219L4.00004 11.3355V12.0022H6.75644C7.51264 11.9503 8.17272 11.6203 8.63838 11.0832L14.186 5.53788C14.4938 5.23009 14.6667 4.81264 14.6667 4.37737C14.6667 3.9421 14.4938 3.52465 14.186 3.21687L12.7854 1.81627ZM6.70936 10.6705C7.06551 10.6453 7.39703 10.4796 7.66324 10.1751L11.7045 6.1338L9.86831 4.2975L5.79744 8.36704C5.52734 8.60593 5.36025 8.94014 5.33337 9.24587V10.6693L6.70936 10.6705ZM10.8113 3.35484L12.6473 5.19099L13.2432 4.59507C13.301 4.53733 13.3334 4.45902 13.3334 4.37737C13.3334 4.29572 13.301 4.21741 13.2432 4.15968L11.8408 2.75722C11.7837 2.69968 11.706 2.66732 11.6249 2.66732C11.5439 2.66732 11.4662 2.69968 11.4091 2.75722L10.8113 3.35484Z" fill="#45484C"/>
</svg>
