<svg width="16" height="16" viewBox="0 0 16 16" fill="none" xmlns="http://www.w3.org/2000/svg">
<path fill-rule="evenodd" clip-rule="evenodd" d="M8.00008 15.3332C3.94999 15.3332 0.666748 12.0499 0.666748 7.99984C0.666748 3.94975 3.94999 0.666504 8.00008 0.666504C12.0502 0.666504 15.3334 3.94975 15.3334 7.99984C15.3334 12.0499 12.0502 15.3332 8.00008 15.3332ZM12.688 11.745C13.5091 10.7185 14.0001 9.41652 14.0001 7.99984C14.0001 4.68613 11.3138 1.99984 8.00008 1.99984C6.5834 1.99984 5.28139 2.49082 4.25494 3.31192L12.688 11.745ZM11.7452 12.6878C10.7187 13.5089 9.41675 13.9998 8.00008 13.9998C4.68637 13.9998 2.00008 11.3135 2.00008 7.99984C2.00008 6.58317 2.49106 5.28117 3.31214 4.25473L11.7452 12.6878Z" fill="#EB5757"/>
</svg>
