<svg width="16" height="16" viewBox="0 0 16 16" fill="none" xmlns="http://www.w3.org/2000/svg">
<path fill-rule="evenodd" clip-rule="evenodd" d="M7.99967 14.6654C9.14938 14.6654 10.2577 14.3734 11.2393 13.8265L14.0628 14.0618L13.8275 11.2384C14.3743 10.2567 14.6663 9.1484 14.6663 7.9987C14.6663 4.3168 11.6816 1.33203 7.99967 1.33203C4.31778 1.33203 1.33301 4.3168 1.33301 7.9987C1.33301 11.6806 4.31778 14.6654 7.99967 14.6654ZM10.743 12.5734L10.9274 12.4626L12.6032 12.6022L12.4636 10.9264L12.5744 10.742C13.0684 9.92031 13.333 8.97972 13.333 7.9987C13.333 5.05318 10.9452 2.66536 7.99967 2.66536C5.05416 2.66536 2.66634 5.05318 2.66634 7.9987C2.66634 10.9442 5.05416 13.332 7.99967 13.332C8.9807 13.332 9.92129 13.0674 10.743 12.5734ZM7.99989 11.3309C8.3682 11.3309 8.66678 11.0324 8.66678 10.6642C8.66678 10.296 8.3682 9.99753 7.99989 9.99753C7.63158 9.99753 7.33301 10.296 7.33301 10.6642C7.33301 11.0324 7.63158 11.3309 7.99989 11.3309ZM7.33301 9.33203H8.66634V8.66536C8.66634 8.66699 8.66949 8.66352 8.67662 8.65566C8.69412 8.63638 8.73558 8.5907 8.81333 8.52902C8.88011 8.47604 8.90083 8.46231 9.06955 8.35535C9.64371 7.99136 9.99967 7.35841 9.99967 6.66536C9.99967 5.56079 9.10424 4.66536 7.99967 4.66536C6.8951 4.66536 5.99967 5.56079 5.99967 6.66536H7.33301C7.33301 6.29717 7.63148 5.9987 7.99967 5.9987C8.36786 5.9987 8.66634 6.29717 8.66634 6.66536C8.66634 6.89691 8.54803 7.10728 8.35565 7.22924C8.13978 7.36609 8.10395 7.38983 7.98467 7.48446C7.58817 7.79902 7.33301 8.17383 7.33301 8.66536V9.33203Z" fill="black"/>
</svg>
