<svg width="16" height="20" viewBox="0 0 16 20" fill="none" xmlns="http://www.w3.org/2000/svg">
<path fill-rule="evenodd" clip-rule="evenodd" d="M10.8452 0.833252H2.16667C1.24619 0.833252 0.5 1.57944 0.5 2.49992V17.4999C0.5 18.4204 1.24619 19.1666 2.16667 19.1666H13.8333C14.7538 19.1666 15.5 18.4204 15.5 17.4999V5.48807L10.8452 0.833252ZM2.16667 2.49992H8.83333V5.83325C8.83333 6.75373 9.57953 7.49992 10.5 7.49992H13.8333V17.4999H2.16667V2.49992ZM10.5 5.83325V2.8451L13.4882 5.83325H10.5ZM10.7441 9.41066L7.16665 12.9881L5.25591 11.0773L4.0774 12.2558L7.16665 15.3451L11.9226 10.5892L10.7441 9.41066Z" fill="#27AE60"/>
</svg>
