<svg width="20" height="16" viewBox="0 0 20 16" fill="none" xmlns="http://www.w3.org/2000/svg">
<path fill-rule="evenodd" clip-rule="evenodd" d="M17.5 2.16667C18.4205 2.16667 19.1667 2.91286 19.1667 3.83333V13.8333C19.1667 14.7538 18.4205 15.5 17.5 15.5H2.50001C1.57954 15.5 0.833344 14.7538 0.833344 13.8333V2.16667C0.833344 1.24619 1.57954 0.5 2.50001 0.5H7.50001C8.43334 0.5 9.02746 0.896209 9.62416 1.64904C9.64067 1.66988 9.68094 1.72177 9.72552 1.77922C9.7884 1.86025 9.85987 1.95235 9.88541 1.98402C9.91125 2.01604 9.93303 2.04254 9.95103 2.06443C10.0243 2.15357 10.0349 2.16649 10.0015 2.16667H17.5ZM17.5 13.8333V3.83333L9.99555 3.83332C9.39709 3.83012 9.00725 3.54992 8.5882 3.03045C8.55024 2.98339 8.45799 2.86447 8.39101 2.77813C8.35595 2.73294 8.32782 2.69668 8.31801 2.6843C8.00586 2.29047 7.82021 2.16667 7.50001 2.16667H2.50001V13.8333H17.5ZM11.9107 5.74408L10 7.65482L8.08925 5.74408L6.91074 6.92259L8.82149 8.83333L6.91074 10.7441L8.08925 11.9226L10 10.0118L11.9107 11.9226L13.0893 10.7441L11.1785 8.83333L13.0893 6.92259L11.9107 5.74408Z" fill="#EB5757"/>
</svg>
