<svg width="20" height="20" viewBox="0 0 20 20" fill="none" xmlns="http://www.w3.org/2000/svg">
<path fill-rule="evenodd" clip-rule="evenodd" d="M0.833344 10C0.833344 15.0626 4.9374 19.1667 10 19.1667C15.0626 19.1667 19.1667 15.0626 19.1667 10C19.1667 4.93743 15.0626 0.833374 10 0.833374C4.9374 0.833374 0.833344 4.93743 0.833344 10ZM17.5 10C17.5 14.1422 14.1421 17.5 10 17.5C5.85787 17.5 2.50001 14.1422 2.50001 10C2.50001 5.8579 5.85787 2.50004 10 2.50004C14.1421 2.50004 17.5 5.8579 17.5 10ZM10.0003 14.1653C10.4607 14.1653 10.8339 13.7922 10.8339 13.332C10.8339 12.8718 10.4607 12.4987 10.0003 12.4987C9.5399 12.4987 9.16668 12.8718 9.16668 13.332C9.16668 13.7922 9.5399 14.1653 10.0003 14.1653ZM9.16668 11.6667H10.8333C10.8333 11.0014 10.9379 10.8795 11.6227 10.5371C12.8129 9.94198 13.3333 9.33475 13.3333 7.91671C13.3333 6.10056 11.9036 5.00004 10 5.00004C8.15906 5.00004 6.66668 6.49242 6.66668 8.33337H8.33334C8.33334 7.4129 9.07954 6.66671 10 6.66671C11.0643 6.66671 11.6667 7.13038 11.6667 7.91671C11.6667 8.582 11.5622 8.70394 10.8773 9.04635C9.68716 9.64144 9.16668 10.2487 9.16668 11.6667Z" fill="#575A5F"/>
</svg>
