<svg width="16" height="16" viewBox="0 0 16 16" fill="none" xmlns="http://www.w3.org/2000/svg">
<path fill-rule="evenodd" clip-rule="evenodd" d="M12.4375 13.9313L13.9156 12.4532L13.3951 10.562L13.6219 10.0203L15.3334 9.05451V6.96426L13.6267 5.99445L13.4037 5.45374L13.9308 3.56153L12.4517 2.08451L10.5603 2.60495L10.0198 2.37834L9.05396 0.666626H6.96371L5.99389 2.37332L5.45331 2.59627L3.5614 2.0685L2.08455 3.54535L2.60507 5.43708L2.37847 5.97752L0.666748 6.94339V9.03304L2.37191 10.005L2.59509 10.5462L2.06806 12.4381L3.54547 13.9155L5.4372 13.395L5.97771 13.6216L6.94359 15.3326H9.03331L10.0046 13.6274L10.5456 13.4043L12.4375 13.9313ZM12.5685 9.0837L11.9873 10.4718L12.4242 12.059L12.0453 12.4379L10.4614 11.9967L9.07272 12.5695L8.25831 13.9993H7.72203L6.91435 12.5685L5.52778 11.9872L3.93972 12.4241L3.56143 12.0458L4.00265 10.462L3.42996 9.07338L2.00008 8.25833V7.72198L3.43148 6.91429L4.01288 5.52766L3.57592 3.9396L3.95342 3.5621L5.53725 4.00393L6.92645 3.43099L7.73962 1.99996H8.27536L9.08305 3.43136L10.4697 4.01276L12.0581 3.57571L12.4373 3.9544L11.9962 5.53793L12.569 6.927L14.0001 7.74017V8.27591L12.5685 9.0837ZM8.00008 10.6666C6.52732 10.6666 5.33342 9.47272 5.33342 7.99996C5.33342 6.5272 6.52732 5.33329 8.00008 5.33329C9.47284 5.33329 10.6667 6.5272 10.6667 7.99996C10.6667 9.47272 9.47284 10.6666 8.00008 10.6666ZM9.33341 7.99996C9.33341 8.73634 8.73646 9.33329 8.00008 9.33329C7.2637 9.33329 6.66675 8.73634 6.66675 7.99996C6.66675 7.26358 7.2637 6.66663 8.00008 6.66663C8.73646 6.66663 9.33341 7.26358 9.33341 7.99996Z" fill="#797F84"/>
</svg>
