<svg width="16" height="16" viewBox="0 0 16 16" fill="none" xmlns="http://www.w3.org/2000/svg">
<path fill-rule="evenodd" clip-rule="evenodd" d="M8.00033 15.3346C3.95024 15.3346 0.666992 12.0514 0.666992 8.0013C0.666992 3.95121 3.95024 0.667969 8.00033 0.667969C12.0504 0.667969 15.3337 3.95121 15.3337 8.0013C15.3337 12.0514 12.0504 15.3346 8.00033 15.3346ZM8.00033 14.0013C11.314 14.0013 14.0003 11.315 14.0003 8.0013C14.0003 4.68759 11.314 2.0013 8.00033 2.0013C4.68662 2.0013 2.00033 4.68759 2.00033 8.0013C2.00033 11.315 4.68662 14.0013 8.00033 14.0013ZM11.3337 7.33463H8.66699V4.66797H7.33366V7.33463H4.66699V8.66797H7.33366V11.3346H8.66699V8.66797H11.3337V7.33463Z" fill="#45484C"/>
</svg>
