<svg width="20" height="20" viewBox="0 0 20 20" fill="none" xmlns="http://www.w3.org/2000/svg">
<path fill-rule="evenodd" clip-rule="evenodd" d="M10.0002 19.1667C4.93755 19.1667 0.833496 15.0626 0.833496 10C0.833496 4.93743 4.93755 0.833374 10.0002 0.833374C15.0628 0.833374 19.1668 4.93743 19.1668 10C19.1668 15.0626 15.0628 19.1667 10.0002 19.1667ZM16.1664 14.2706C17.0073 13.0586 17.5002 11.5869 17.5002 10C17.5002 5.8579 14.1423 2.50004 10.0002 2.50004C5.85803 2.50004 2.50016 5.8579 2.50016 10C2.50016 11.5869 2.99298 13.0586 3.83392 14.2706C4.77179 13.0318 6.97566 12.5 10.0002 12.5C13.0247 12.5 15.2285 13.0318 16.1664 14.2706ZM14.9707 15.6165C14.7268 14.7395 12.9746 14.1667 10.0002 14.1667C7.02568 14.1667 5.2735 14.7395 5.02959 15.6165C6.35291 16.7885 8.09344 17.5 10.0002 17.5C11.9069 17.5 13.6474 16.7885 14.9707 15.6165ZM10.0002 5.00004C7.98275 5.00004 6.66683 6.46317 6.66683 8.33337C6.66683 11.1895 8.13422 12.5 10.0002 12.5C11.8486 12.5 13.3335 11.2331 13.3335 8.50004C13.3335 6.60136 12.012 5.00004 10.0002 5.00004ZM8.3335 8.33337C8.3335 10.2244 9.01534 10.8334 10.0002 10.8334C10.9816 10.8334 11.6668 10.2487 11.6668 8.50004C11.6668 7.45872 11.0132 6.66671 10.0002 6.66671C8.94494 6.66671 8.3335 7.34656 8.3335 8.33337Z" fill="#575A5F"/>
</svg>
