<svg width="128" height="128" viewBox="0 0 128 128" fill="none" xmlns="http://www.w3.org/2000/svg">
<path d="M128 64C128 99.3467 99.3467 128 64 128C28.6533 128 0 99.3467 0 64C0 28.6533 28.6533 0 64 0C99.3467 0 128 28.6533 128 64Z" fill="#EEF3FE"/>
<path d="M96.0001 36.4004H32.4339C30.4258 36.4004 28.7992 38.027 28.7992 40.0336V41.9041L33.5145 48.7811H94.989L99.3324 41.9041V39.7313C99.3326 37.8908 97.8407 36.4004 96.0001 36.4004Z" fill="#2275AA"/>
<path d="M99.333 41.9033V88.324C99.333 90.3306 97.7049 91.9587 95.6983 91.9587H32.4329C30.4262 91.9587 28.7997 90.3306 28.7997 88.324V41.9033H99.333Z" fill="#79A2F9"/>
<path d="M99.3341 88.324V41.9033H64.0674L64.0667 91.9587H95.6994C97.706 91.9587 99.3341 90.3306 99.3341 88.324Z" fill="#457FFB" fill-opacity="0.54"/>
<path d="M46.0545 86.8488H43.6962C43.1676 86.8488 42.739 86.4204 42.739 85.8917C42.739 85.363 43.1676 84.9346 43.6962 84.9346H46.0545C46.5831 84.9346 47.0116 85.363 47.0116 85.8917C47.0116 86.4204 46.5831 86.8488 46.0545 86.8488Z" fill="white" fill-opacity="0.4"/>
<path d="M84.7003 86.8488H82.342C81.8133 86.8488 81.3849 86.4204 81.3849 85.8917C81.3849 85.363 81.8133 84.9346 82.342 84.9346H84.7003C85.2291 84.9346 85.6575 85.363 85.6575 85.8917C85.6575 86.4204 85.2289 86.8488 84.7003 86.8488Z" fill="white" fill-opacity="0.4"/>
<path d="M78.4777 86.8488H49.7349C49.2063 86.8488 48.7778 86.4204 48.7778 85.8917C48.7778 85.363 49.2063 84.9346 49.7349 84.9346H78.4777C79.0065 84.9346 79.4349 85.363 79.4349 85.8917C79.4349 86.4204 79.0063 86.8488 78.4777 86.8488Z" fill="white" fill-opacity="0.4"/>
<path d="M76.7684 75.9066L65.5101 77.2655L52.6742 78.8147C51.0108 79.0154 49.4997 77.8298 49.299 76.1664L47.1179 58.0957C46.9172 56.4323 48.1028 54.9212 49.7662 54.7205L62.602 53.1713L73.8604 51.8124C75.5238 51.6117 77.0349 52.7973 77.2356 54.4607L79.4167 72.5314C79.6174 74.1948 78.4318 75.7059 76.7684 75.9066Z" fill="#FFC72D"/>
<path d="M77.2366 54.4608C77.0358 52.7973 75.5247 51.6117 73.8613 51.8125L64.0099 52.9326L64.2797 77.4803L76.7694 75.9067C78.4328 75.7059 79.6184 74.1948 79.4176 72.5314L77.2366 54.4608Z" fill="#F59D00"/>
<path d="M78.8703 68.0133L71.3408 68.922C70.5092 69.0224 69.7534 68.4294 69.6531 67.5978L68.9261 61.5743C68.8257 60.7427 69.4186 59.987 70.2503 59.8866L77.7797 58.9778C78.6113 58.8775 79.3671 59.4704 79.4674 60.302L80.1945 66.3255C80.2948 67.1573 79.7019 67.9129 78.8703 68.0133Z" fill="#2264AA"/>
<path d="M73.9907 65.547C74.8225 65.4466 75.4153 64.691 75.3149 63.8592C75.2145 63.0275 74.4589 62.4347 73.6272 62.535C72.7955 62.6354 72.2026 63.391 72.303 64.2228C72.4034 65.0545 73.159 65.6473 73.9907 65.547Z" fill="#F59D00"/>
</svg>
