<svg width="118" height="18" viewBox="0 0 118 18" fill="none" xmlns="http://www.w3.org/2000/svg">
<path fill-rule="evenodd" clip-rule="evenodd" d="M32.2449 3.21087V0H35.4799V3.21087H32.2449ZM0.884549 5.84238C0.514373 6.85634 0.329285 7.8864 0.329285 8.93254C0.329285 10.027 0.530467 11.1053 0.932833 12.1676C1.35129 13.2137 1.92265 14.1552 2.64691 14.9922C3.38726 15.813 4.26442 16.4809 5.27838 16.9959C6.29234 17.511 7.41091 17.7685 8.6341 17.7685C9.32617 17.7685 10.0343 17.68 10.7586 17.5029C11.4829 17.3259 12.1588 17.0684 12.7865 16.7304C13.4303 16.3924 14.0017 15.982 14.5006 15.4991C15.0156 15.0002 15.4099 14.4289 15.6835 13.7851L12.9555 12.2158C12.7624 12.6826 12.5049 13.085 12.183 13.4229C11.8611 13.7448 11.507 14.0104 11.1207 14.2196C10.7505 14.4289 10.3562 14.5818 9.93777 14.6783C9.51931 14.7749 9.11694 14.8232 8.73067 14.8232C7.99032 14.8232 7.3063 14.6622 6.67861 14.3403C6.06701 14.0184 5.53589 13.5919 5.08524 13.0608C4.65069 12.5297 4.3127 11.9181 4.07128 11.226C3.82986 10.5179 3.70915 9.78556 3.70915 9.02911C3.70915 8.35314 3.81377 7.67717 4.023 7.00119C4.23223 6.30912 4.53803 5.69753 4.94039 5.16641C5.35885 4.61919 5.87388 4.17659 6.48547 3.8386C7.11316 3.50061 7.84547 3.33162 8.68239 3.33162C9.06866 3.33162 9.46298 3.3799 9.86534 3.47647C10.2677 3.55695 10.654 3.69375 11.0242 3.88688C11.3943 4.08002 11.7404 4.34558 12.0623 4.68357C12.3841 5.00546 12.6578 5.40783 12.8831 5.89066L15.4421 4.1283C14.8788 3.01778 14.0178 2.11648 12.8589 1.42441C11.7162 0.732341 10.3562 0.386307 8.77895 0.386307C7.4431 0.386307 6.2521 0.635773 5.20595 1.13471C4.1598 1.63364 3.2746 2.28547 2.55034 3.0902C1.82608 3.89493 1.27082 4.81232 0.884549 5.84238ZM20.6699 17.334C21.4907 17.6881 22.4161 17.8651 23.4462 17.8651C24.4762 17.8651 25.4017 17.6881 26.2225 17.334C27.0433 16.9799 27.7354 16.5051 28.2987 15.9096C28.862 15.298 29.2966 14.5979 29.6024 13.8093C29.9082 13.0206 30.0611 12.1918 30.0611 11.3227C30.0611 10.4374 29.9082 9.60053 29.6024 8.81189C29.2966 8.02326 28.854 7.33119 28.2746 6.73569C27.7112 6.12409 27.0192 5.64125 26.1984 5.28717C25.3936 4.93309 24.4762 4.75605 23.4462 4.75605C22.4161 4.75605 21.4907 4.93309 20.6699 5.28717C19.849 5.64125 19.1489 6.12409 18.5695 6.73569C18.0062 7.33119 17.5716 8.02326 17.2658 8.81189C16.96 9.60053 16.8071 10.4374 16.8071 11.3227C16.8071 12.1918 16.96 13.0206 17.2658 13.8093C17.5716 14.5979 18.0062 15.298 18.5695 15.9096C19.1489 16.5051 19.849 16.9799 20.6699 17.334ZM20.1387 11.3228C20.1387 11.8861 20.2192 12.4011 20.3802 12.8678C20.5572 13.3185 20.7906 13.7128 21.0803 14.0508C21.3861 14.3888 21.7401 14.6543 22.1425 14.8475C22.5449 15.0245 22.9794 15.113 23.4462 15.113C23.9129 15.113 24.3475 15.0245 24.7498 14.8475C25.1522 14.6543 25.4982 14.3888 25.7879 14.0508C26.0937 13.7128 26.3271 13.3104 26.4881 12.8437C26.6651 12.377 26.7536 11.8619 26.7536 11.2986C26.7536 10.7514 26.6651 10.2444 26.4881 9.77767C26.3271 9.31093 26.0937 8.90856 25.7879 8.57058C25.4982 8.23259 25.1522 7.97507 24.7498 7.79803C24.3475 7.6049 23.9129 7.50833 23.4462 7.50833C22.9794 7.50833 22.5449 7.6049 22.1425 7.79803C21.7401 7.99117 21.3861 8.25673 21.0803 8.59472C20.7906 8.9327 20.5572 9.33507 20.3802 9.80181C20.2192 10.2686 20.1387 10.7755 20.1387 11.3228ZM32.2449 4.97337V17.6237H35.4799V4.97337H32.2449ZM46.9202 17.6237H50.1552V9.72928C50.1552 9.11769 50.0988 8.51414 49.9862 7.91864C49.8896 7.32314 49.7045 6.79202 49.4309 6.32527C49.1573 5.85853 48.771 5.48031 48.2721 5.1906C47.7732 4.9009 47.1294 4.75605 46.3407 4.75605C45.2302 4.75605 44.2324 4.98137 43.3472 5.43202C42.4619 5.88267 41.786 6.51036 41.3192 7.31509V4.97333H38.3981V17.6237H41.6331V10.2363C41.7457 9.84999 41.9228 9.49591 42.1642 9.17402C42.4056 8.85213 42.6712 8.57852 42.9609 8.3532C43.2667 8.11178 43.5886 7.92669 43.9266 7.79793C44.2645 7.66917 44.5945 7.6048 44.9164 7.6048C45.5441 7.6048 46.035 7.83817 46.389 8.30491C46.7431 8.77166 46.9202 9.51201 46.9202 10.526V17.6237ZM52.171 11.2985C52.171 10.4133 52.3239 9.57639 52.6297 8.78775C52.9355 7.99911 53.3781 7.30705 53.9575 6.71155C54.5369 6.11604 55.237 5.64125 56.0579 5.28717C56.8787 4.93309 57.8041 4.75605 58.8342 4.75605C60.2183 4.75605 61.3932 5.0538 62.3589 5.6493C63.3407 6.2448 64.073 7.02539 64.5558 7.99107L61.3932 8.95674C61.1196 8.49 60.7575 8.13592 60.3068 7.8945C59.8562 7.63699 59.3573 7.50823 58.81 7.50823C58.3433 7.50823 57.9087 7.6048 57.5064 7.79793C57.104 7.97497 56.7499 8.23249 56.4441 8.57047C56.1544 8.89237 55.9211 9.28668 55.744 9.75343C55.5831 10.2202 55.5026 10.7352 55.5026 11.2985C55.5026 11.8618 55.5911 12.3768 55.7682 12.8436C55.9452 13.3103 56.1786 13.7127 56.4683 14.0507C56.7741 14.3887 57.1282 14.6542 57.5305 14.8474C57.9329 15.0244 58.3594 15.1129 58.81 15.1129C59.3895 15.1129 59.9206 14.9681 60.4034 14.6784C60.9023 14.3887 61.2484 14.0346 61.4415 13.6161L64.6041 14.5818C64.1696 15.5475 63.4533 16.3361 62.4555 16.9477C61.4576 17.5593 60.2586 17.8651 58.8583 17.8651C57.8283 17.8651 56.9028 17.6881 56.082 17.334C55.2612 16.9799 54.5611 16.5051 53.9817 15.9096C53.4023 15.298 52.9516 14.5979 52.6297 13.8093C52.3239 13.0045 52.171 12.1676 52.171 11.2985ZM69.8057 0H66.5707V14.7024C66.5707 15.7003 66.8443 16.4728 67.3915 17.0201C67.9548 17.5512 68.7434 17.8167 69.7574 17.8167C70.2241 17.8167 70.7472 17.7604 71.3266 17.6477C71.906 17.5351 72.413 17.3741 72.8476 17.1649L72.413 14.7024C72.2038 14.799 71.9785 14.8795 71.737 14.9438C71.5117 15.0082 71.3025 15.0404 71.1093 15.0404C70.6909 15.0404 70.369 14.9117 70.1437 14.6541C69.9183 14.3966 69.8057 14.0345 69.8057 13.5678V0ZM78.1196 17.8652C76.8159 17.8652 75.8261 17.4467 75.1501 16.6098C74.4741 15.7729 74.1361 14.5336 74.1361 12.8919V4.97337H77.3712V12.1918C77.3712 14.1393 78.0713 15.113 79.4715 15.113C80.0992 15.113 80.7027 14.9279 81.2821 14.5577C81.8776 14.1714 82.3605 13.592 82.7307 12.8195V4.97337H85.9657V13.9059C85.9657 14.2439 86.022 14.4853 86.1347 14.6301C86.2634 14.775 86.4646 14.8555 86.7382 14.8716V17.6237C86.4163 17.6881 86.1427 17.7283 85.9174 17.7444C85.7082 17.7605 85.515 17.7686 85.338 17.7686C84.7586 17.7686 84.2838 17.6398 83.9136 17.3823C83.5595 17.1087 83.3503 16.7385 83.2859 16.2718L83.2135 15.2578C82.6502 16.1269 81.9259 16.7788 81.0407 17.2133C80.1555 17.6479 79.1818 17.8652 78.1196 17.8652ZM90.8464 17.3582C91.8603 17.6962 92.8984 17.8652 93.9607 17.8652C95.5379 17.8652 96.7853 17.5111 97.7027 16.803C98.6201 16.0787 99.0788 15.0969 99.0788 13.8577C99.0788 13.3265 98.9822 12.8759 98.789 12.5057C98.612 12.1194 98.3223 11.7815 97.9199 11.4918C97.5337 11.2021 97.0267 10.9445 96.399 10.7192C95.7874 10.4939 95.0471 10.2686 94.1779 10.0432C93.7112 9.93058 93.3169 9.82596 92.995 9.72939C92.6892 9.61673 92.4397 9.50407 92.2466 9.39141C92.0535 9.27874 91.9086 9.14999 91.812 9.00514C91.7316 8.86028 91.6913 8.6752 91.6913 8.44987C91.6913 7.95094 91.8764 7.58881 92.2466 7.36349C92.6168 7.13816 93.0755 7.0255 93.6227 7.0255C94.2182 7.0255 94.8137 7.13816 95.4092 7.36349C96.0208 7.58881 96.6485 7.94289 97.2922 8.42573L98.5959 6.47024C97.9038 5.85864 97.1394 5.41604 96.3024 5.14243C95.4816 4.86882 94.5964 4.73202 93.6468 4.73202C92.9387 4.73202 92.2788 4.82859 91.6672 5.02172C91.0717 5.21486 90.5486 5.49651 90.098 5.86669C89.6473 6.22077 89.2932 6.65532 89.0357 7.17035C88.7943 7.68538 88.6736 8.26478 88.6736 8.90857C88.6736 9.39141 88.7541 9.80987 88.915 10.1639C89.076 10.5019 89.3335 10.8077 89.6875 11.0813C90.0416 11.3389 90.5084 11.5722 91.0878 11.7815C91.6672 11.9907 92.3673 12.208 93.1881 12.4333C94.1699 12.7069 94.8781 12.9483 95.3126 13.1575C95.7472 13.3668 95.9644 13.6967 95.9644 14.1474C95.9644 14.598 95.7794 14.944 95.4092 15.1855C95.039 15.4269 94.532 15.5476 93.8882 15.5476C93.164 15.5476 92.4317 15.4108 91.6913 15.1372C90.9671 14.8475 90.2187 14.429 89.4461 13.8818L88.239 15.9097C88.9633 16.5374 89.8324 17.0203 90.8464 17.3582ZM108.762 16.9717C108.327 17.1648 107.796 17.3579 107.168 17.5511C106.541 17.7442 105.881 17.8408 105.189 17.8408C104.738 17.8408 104.312 17.7845 103.909 17.6718C103.523 17.5591 103.177 17.3821 102.871 17.1407C102.581 16.8832 102.348 16.5613 102.171 16.175C101.994 15.7726 101.905 15.2898 101.905 14.7265V7.45976H100.24V4.97314H101.905V0.869019H105.14V4.97314H107.796V7.45976H105.14V13.6401C105.14 14.0907 105.253 14.4126 105.478 14.6058C105.72 14.7828 106.009 14.8713 106.347 14.8713C106.685 14.8713 107.015 14.815 107.337 14.7023C107.659 14.5897 107.917 14.4931 108.11 14.4126L108.762 16.9717ZM115.347 8.35291C116.12 7.98273 116.997 7.7896 117.979 7.7735V4.82819C117.898 4.81209 117.81 4.80405 117.713 4.80405H117.327C116.989 4.80405 116.635 4.87647 116.265 5.02132C115.911 5.15008 115.557 5.34322 115.203 5.60073C114.848 5.85824 114.519 6.16404 114.213 6.51812C113.907 6.85611 113.641 7.24238 113.416 7.67693V4.97304H110.447V17.6234H113.682V9.97042C114.02 9.24616 114.575 8.70699 115.347 8.35291Z" fill="#575A5F"/>
</svg>
